<svg width="59" height="47" viewBox="0 0 59 47" fill="none" xmlns="http://www.w3.org/2000/svg">
<path d="M13.352 38.464C13.2453 38.208 13.1013 37.8827 12.92 37.488C12.7493 37.0933 12.5627 36.6667 12.36 36.208C12.1573 35.7493 11.9387 35.28 11.704 34.8C11.48 34.3093 11.2667 33.8507 11.064 33.424C10.8613 32.9867 10.6693 32.5973 10.488 32.256C10.3173 31.9147 10.1787 31.6533 10.072 31.472C9.95467 32.7307 9.85867 34.096 9.784 35.568C9.70933 37.0293 9.64533 38.5067 9.592 40H8.072C8.11467 39.04 8.16267 38.0747 8.216 37.104C8.26933 36.1227 8.328 35.1627 8.392 34.224C8.46667 33.2747 8.54133 32.352 8.616 31.456C8.70133 30.56 8.792 29.712 8.888 28.912H10.248C10.536 29.3813 10.8453 29.936 11.176 30.576C11.5067 31.216 11.8373 31.888 12.168 32.592C12.4987 33.2853 12.8187 33.984 13.128 34.688C13.4373 35.3813 13.72 36.016 13.976 36.592C14.232 36.016 14.5147 35.3813 14.824 34.688C15.1333 33.984 15.4533 33.2853 15.784 32.592C16.1147 31.888 16.4453 31.216 16.776 30.576C17.1067 29.936 17.416 29.3813 17.704 28.912H19.064C19.4267 32.4853 19.6987 36.1813 19.88 40H18.36C18.3067 38.5067 18.2427 37.0293 18.168 35.568C18.0933 34.096 17.9973 32.7307 17.88 31.472C17.7733 31.6533 17.6293 31.9147 17.448 32.256C17.2773 32.5973 17.0907 32.9867 16.888 33.424C16.6853 33.8507 16.4667 34.3093 16.232 34.8C16.008 35.28 15.7947 35.7493 15.592 36.208C15.3893 36.6667 15.1973 37.0933 15.016 37.488C14.8453 37.8827 14.7067 38.208 14.6 38.464H13.352ZM29.7215 40C29.5402 39.52 29.3695 39.0507 29.2095 38.592C29.0495 38.1227 28.8842 37.648 28.7135 37.168H23.6895L22.6815 40H21.0655C21.4922 38.8267 21.8922 37.744 22.2655 36.752C22.6388 35.7493 23.0015 34.8 23.3535 33.904C23.7162 33.008 24.0735 32.1547 24.4255 31.344C24.7775 30.5227 25.1455 29.712 25.5295 28.912H26.9535C27.3375 29.712 27.7055 30.5227 28.0575 31.344C28.4095 32.1547 28.7615 33.008 29.1135 33.904C29.4762 34.8 29.8442 35.7493 30.2175 36.752C30.5908 37.744 30.9908 38.8267 31.4175 40H29.7215ZM28.2655 35.888C27.9242 34.96 27.5828 34.064 27.2415 33.2C26.9108 32.3253 26.5642 31.488 26.2015 30.688C25.8282 31.488 25.4708 32.3253 25.1295 33.2C24.7988 34.064 24.4682 34.96 24.1375 35.888H28.2655ZM38.3469 35.36C38.5175 35.5733 38.7309 35.856 38.9869 36.208C39.2535 36.5493 39.5255 36.9333 39.8029 37.36C40.0802 37.776 40.3522 38.2133 40.6189 38.672C40.8962 39.1307 41.1309 39.5733 41.3229 40H39.6269C39.4135 39.5947 39.1789 39.184 38.9229 38.768C38.6775 38.352 38.4269 37.9573 38.1709 37.584C37.9149 37.2 37.6589 36.8427 37.4029 36.512C37.1575 36.1813 36.9335 35.8933 36.7309 35.648C36.5922 35.6587 36.4482 35.664 36.2989 35.664C36.1602 35.664 36.0162 35.664 35.8669 35.664H34.4749V40H32.9229V29.072C33.3602 28.9653 33.8455 28.896 34.3789 28.864C34.9229 28.8213 35.4189 28.8 35.8669 28.8C37.4242 28.8 38.6082 29.0933 39.4189 29.68C40.2402 30.2667 40.6509 31.1413 40.6509 32.304C40.6509 33.04 40.4535 33.6693 40.0589 34.192C39.6749 34.7147 39.1042 35.104 38.3469 35.36ZM35.9949 30.16C35.3335 30.16 34.8269 30.176 34.4749 30.208V34.384H35.5789C36.1122 34.384 36.5922 34.3573 37.0189 34.304C37.4455 34.2507 37.8029 34.1493 38.0909 34C38.3895 33.8507 38.6189 33.6427 38.7789 33.376C38.9389 33.0987 39.0189 32.736 39.0189 32.288C39.0189 31.872 38.9389 31.5253 38.7789 31.248C38.6189 30.9707 38.4002 30.752 38.1229 30.592C37.8562 30.432 37.5362 30.32 37.1629 30.256C36.8002 30.192 36.4109 30.16 35.9949 30.16ZM45.5614 38.896C47.1827 38.896 47.9934 38.3413 47.9934 37.232C47.9934 36.8907 47.9187 36.6027 47.7694 36.368C47.6307 36.1227 47.4387 35.9147 47.1934 35.744C46.948 35.5627 46.6654 35.408 46.3454 35.28C46.036 35.152 45.7054 35.024 45.3534 34.896C44.948 34.7573 44.564 34.6027 44.2014 34.432C43.8387 34.2507 43.524 34.0427 43.2574 33.808C42.9907 33.5627 42.7774 33.2747 42.6174 32.944C42.468 32.6133 42.3934 32.2133 42.3934 31.744C42.3934 30.7733 42.724 30.016 43.3854 29.472C44.0467 28.928 44.9587 28.656 46.1214 28.656C46.7934 28.656 47.4014 28.7307 47.9454 28.88C48.5 29.0187 48.9054 29.1733 49.1614 29.344L48.6654 30.608C48.4414 30.4693 48.1054 30.336 47.6574 30.208C47.22 30.0693 46.708 30 46.1214 30C45.8227 30 45.5454 30.032 45.2894 30.096C45.0334 30.16 44.8094 30.256 44.6174 30.384C44.4254 30.512 44.2707 30.6773 44.1534 30.88C44.0467 31.072 43.9934 31.3013 43.9934 31.568C43.9934 31.8667 44.052 32.1173 44.1694 32.32C44.2867 32.5227 44.452 32.704 44.6654 32.864C44.8787 33.0133 45.124 33.152 45.4014 33.28C45.6894 33.408 46.004 33.536 46.3454 33.664C46.8254 33.856 47.2627 34.048 47.6574 34.24C48.0627 34.432 48.4094 34.6613 48.6974 34.928C48.996 35.1947 49.2254 35.5147 49.3854 35.888C49.5454 36.2507 49.6254 36.6933 49.6254 37.216C49.6254 38.1867 49.268 38.9333 48.5534 39.456C47.8494 39.9787 46.852 40.24 45.5614 40.24C45.124 40.24 44.7187 40.208 44.3454 40.144C43.9827 40.0907 43.6574 40.0267 43.3694 39.952C43.0814 39.8667 42.8307 39.7813 42.6174 39.696C42.4147 39.6 42.2547 39.52 42.1374 39.456L42.6014 38.176C42.8467 38.3147 43.22 38.4693 43.7214 38.64C44.2227 38.8107 44.836 38.896 45.5614 38.896Z" fill="white"/>
<path d="M8.784 3.912V5.256H5.296V15H3.744V5.256H0.256V3.912H8.784ZM9.53738 9.448C9.53738 8.49867 9.67604 7.66133 9.95338 6.936C10.2414 6.21067 10.6254 5.608 11.1054 5.128C11.596 4.63733 12.1614 4.26933 12.8014 4.024C13.452 3.77867 14.14 3.656 14.8654 3.656C15.58 3.656 16.252 3.77867 16.8814 4.024C17.5214 4.26933 18.0814 4.63733 18.5614 5.128C19.0414 5.608 19.42 6.21067 19.6974 6.936C19.9854 7.66133 20.1294 8.49867 20.1294 9.448C20.1294 10.3973 19.9854 11.2347 19.6974 11.96C19.42 12.6853 19.0414 13.2933 18.5614 13.784C18.0814 14.264 17.5214 14.6267 16.8814 14.872C16.252 15.1173 15.58 15.24 14.8654 15.24C14.14 15.24 13.452 15.1173 12.8014 14.872C12.1614 14.6267 11.596 14.264 11.1054 13.784C10.6254 13.2933 10.2414 12.6853 9.95338 11.96C9.67604 11.2347 9.53738 10.3973 9.53738 9.448ZM11.1694 9.448C11.1694 10.12 11.2547 10.7333 11.4254 11.288C11.596 11.832 11.836 12.296 12.1454 12.68C12.4654 13.064 12.8494 13.3627 13.2974 13.576C13.756 13.7787 14.268 13.88 14.8334 13.88C15.3987 13.88 15.9054 13.7787 16.3534 13.576C16.8014 13.3627 17.18 13.064 17.4894 12.68C17.8094 12.296 18.0547 11.832 18.2254 11.288C18.396 10.7333 18.4814 10.12 18.4814 9.448C18.4814 8.776 18.396 8.168 18.2254 7.624C18.0547 7.06933 17.8094 6.6 17.4894 6.216C17.18 5.832 16.8014 5.53867 16.3534 5.336C15.9054 5.12267 15.3987 5.016 14.8334 5.016C14.268 5.016 13.756 5.12267 13.2974 5.336C12.8494 5.53867 12.4654 5.832 12.1454 6.216C11.836 6.6 11.596 7.06933 11.4254 7.624C11.2547 8.168 11.1694 8.776 11.1694 9.448ZM33.5496 3.912V5.256H30.0616V15H28.5096V5.256H25.0216V3.912H33.5496ZM42.1645 3.912H43.7165V15H42.1645V9.88H36.7405V15H35.1885V3.912H36.7405V8.536H42.1645V3.912ZM46.4698 15V3.912H53.2378V5.24H48.0218V8.536H52.6618V9.832H48.0218V13.672H53.6378V15H46.4698Z" fill="white"/>
<rect x="0.5" y="22.5" width="58" height="24" stroke="white"/>
</svg>
